<?xml version="1.0" encoding="UTF-8" standalone="no"?>
<!-- Created with Inkscape (http://www.inkscape.org/) -->
<svg xmlns:dc="http://purl.org/dc/elements/1.1/" xmlns:cc="http://creativecommons.org/ns#" xmlns:rdf="http://www.w3.org/1999/02/22-rdf-syntax-ns#" xmlns:svg="http://www.w3.org/2000/svg" xmlns="http://www.w3.org/2000/svg" xmlns:xlink="http://www.w3.org/1999/xlink" xmlns:sodipodi="http://sodipodi.sourceforge.net/DTD/sodipodi-0.dtd" xmlns:inkscape="http://www.inkscape.org/namespaces/inkscape" id="svg2" version="1.1" inkscape:version="0.91 r13725" width="60.289539" height="60.272739" xml:space="preserve" sodipodi:docname="GTA Network Logo 2016.svg" inkscape:export-filename="C:\Users\Martin\Desktop\gtaforums-logo2.png" inkscape:export-xdpi="58.736012" inkscape:export-ydpi="58.736012"><metadata id="metadata8"><rdf:RDF><cc:Work rdf:about=""><dc:format>image/svg+xml</dc:format><dc:type rdf:resource="http://purl.org/dc/dcmitype/StillImage"/><dc:title/></cc:Work></rdf:RDF></metadata><defs id="defs6"><linearGradient id="linearGradient4129"><stop id="stop4131" offset="0" style="stop-color:#6c6c6c;stop-opacity:1;"/><stop id="stop4133" offset="1" style="stop-color:#4b4b4b;stop-opacity:1;"/></linearGradient><linearGradient id="linearGradient4420"><stop style="stop-color:#ffffff;stop-opacity:1;" offset="0" id="stop4422"/><stop style="stop-color:#a7a5a9;stop-opacity:1;" offset="1" id="stop4424"/></linearGradient><clipPath clipPathUnits="userSpaceOnUse" id="clipPath16"><path d="M 0,600 800,600 800,0 0,0 0,600 Z" id="path18" inkscape:connector-curvature="0"/></clipPath><clipPath clipPathUnits="userSpaceOnUse" id="clipPath16-9"><path d="M 0,600 800,600 800,0 0,0 0,600 Z" id="path18-0" inkscape:connector-curvature="0"/></clipPath><clipPath clipPathUnits="userSpaceOnUse" id="clipPath16-9-9"><path d="M 0,600 800,600 800,0 0,0 0,600 Z" id="path18-0-0" inkscape:connector-curvature="0"/></clipPath><linearGradient inkscape:collect="always" xlink:href="#linearGradient4420" id="linearGradient4434" x1="704.74774" y1="-128.66608" x2="747.93866" y2="651.9798" gradientUnits="userSpaceOnUse" gradientTransform="matrix(0.13390956,0,0,0.13390956,1205.3571,-209.49228)"/><linearGradient inkscape:collect="always" xlink:href="#linearGradient4420" id="linearGradient4442" x1="322.79407" y1="353.39932" x2="304.48996" y2="584.19897" gradientUnits="userSpaceOnUse"/><linearGradient inkscape:collect="always" xlink:href="#linearGradient4420" id="linearGradient3121" gradientUnits="userSpaceOnUse" x1="322.79407" y1="353.39932" x2="304.48996" y2="584.19897"/><linearGradient inkscape:collect="always" xlink:href="#linearGradient4420" id="linearGradient3129" gradientUnits="userSpaceOnUse" x1="322.79407" y1="353.39932" x2="304.48996" y2="584.19897"/><linearGradient inkscape:collect="always" xlink:href="#linearGradient4420" id="linearGradient3137" gradientUnits="userSpaceOnUse" x1="322.79407" y1="353.39932" x2="304.48996" y2="584.19897"/><linearGradient inkscape:collect="always" xlink:href="#linearGradient4420" id="linearGradient3141" gradientUnits="userSpaceOnUse" x1="322.79407" y1="353.39932" x2="304.48996" y2="584.19897"/><linearGradient inkscape:collect="always" xlink:href="#linearGradient4420" id="linearGradient3145" gradientUnits="userSpaceOnUse" x1="322.79407" y1="353.39932" x2="304.48996" y2="584.19897"/><linearGradient inkscape:collect="always" xlink:href="#linearGradient4420" id="linearGradient3149" gradientUnits="userSpaceOnUse" x1="322.79407" y1="353.39932" x2="304.48996" y2="584.19897"/><linearGradient inkscape:collect="always" xlink:href="#linearGradient4420" id="linearGradient3910" x1="1346.155" y1="1404.4036" x2="1346.155" y2="1551.566" gradientUnits="userSpaceOnUse" gradientTransform="matrix(0.13390956,0,0,0.13390956,1128.8488,944.32643)"/><linearGradient inkscape:collect="always" xlink:href="#linearGradient4420-5" id="linearGradient3910-3" x1="1346.155" y1="1404.4036" x2="1346.155" y2="1551.566" gradientUnits="userSpaceOnUse" gradientTransform="matrix(0.13390956,0,0,0.13390956,1128.8488,944.32643)"/><linearGradient id="linearGradient4420-5"><stop style="stop-color:#ffffff;stop-opacity:1;" offset="0" id="stop4422-1"/><stop style="stop-color:#a7a5a9;stop-opacity:1;" offset="1" id="stop4424-2"/></linearGradient><linearGradient inkscape:collect="always" xlink:href="#linearGradient4420-5" id="linearGradient4090" x1="1346.155" y1="1404.4036" x2="1346.155" y2="1551.566" gradientUnits="userSpaceOnUse" gradientTransform="matrix(0.13390956,0,0,0.13390956,1128.8488,944.32643)"/><linearGradient id="linearGradient4092"><stop style="stop-color:#ffffff;stop-opacity:1;" offset="0" id="stop4094"/><stop style="stop-color:#a7a5a9;stop-opacity:1;" offset="1" id="stop4096"/></linearGradient><linearGradient y2="1551.566" x2="1346.155" y1="1404.4036" x1="1346.155" gradientTransform="matrix(0.13390956,0,0,0.13390956,1128.8488,948.32643)" gradientUnits="userSpaceOnUse" id="linearGradient4100" xlink:href="#linearGradient4129" inkscape:collect="always"/></defs><sodipodi:namedview pagecolor="#000000" bordercolor="#666666" borderopacity="1" objecttolerance="10" gridtolerance="10" guidetolerance="10" inkscape:pageopacity="0" inkscape:pageshadow="2" inkscape:window-width="1280" inkscape:window-height="657" id="namedview4" showgrid="false" inkscape:zoom="1" inkscape:cx="4.2797624" inkscape:cy="36.624613" inkscape:window-x="-8" inkscape:window-y="-8" inkscape:window-maximized="1" inkscape:current-layer="layer1" fit-margin-top="0" fit-margin-left="0" fit-margin-right="0" fit-margin-bottom="0"/><g inkscape:groupmode="layer" id="layer1" inkscape:label="Flat" transform="translate(-1273.2049,-1034.6643)"><path style="color:#000000;display:inline;overflow:visible;visibility:visible;fill:#ffffff;fill-opacity:1;stroke:none;stroke-width:4;marker:none;enable-background:accumulate" d="m 1303.3475,1034.6651 c -2.2857,0.015 -4.6485,0.2572 -6.6711,0.7056 -4.0155,0.8898 -8.1902,2.8637 -11.7829,5.5718 -1.5063,1.1351 -4.3657,4.0305 -5.5685,5.6392 -8.5304,11.4076 -8.1061,26.7734 1.0395,37.6951 4.8313,5.7697 12.2738,9.7251 19.7653,10.5041 4.5682,0.4752 9.4841,-0.1436 13.7468,-1.7299 9.4419,-3.5141 16.7403,-11.836 18.8835,-21.5324 1.0098,-4.5688 0.9772,-9.4498 -0.092,-13.8435 -2.9383,-12.07 -13.1193,-21.2113 -25.3807,-22.7894 -1.2247,-0.1577 -2.5683,-0.23 -3.9395,-0.2206 z m -1.741,6.9503 0.696,0.1567 c 0.5653,0.1414 1.0598,0.3367 1.5484,0.5219 0,0 0.6966,-0.1107 0.9047,-0.1565 0,-0.028 0,-0.1133 0.1043,-0.1218 0.053,-0.01 0.1243,0.073 0.3828,0.052 0.4013,-0.1226 1.7319,-0.4225 1.7051,-0.4003 l 0,0.07 -0.1392,0.087 -1.0614,0.4175 0.1219,0.069 -0.2089,0.069 0.017,0.087 -0.1043,-0.051 -0.3133,0.1218 0.035,0.069 -0.1392,-0.034 -0.1741,-0.069 -0.1392,0.051 1.3222,0.3305 1.2006,-0.5915 0.3654,0.1043 -0.3306,0.5915 0.3306,-0.087 0.1914,0.069 -0.522,0.2958 0,0.1914 -0.1914,-0.017 -0.1043,0.1914 -0.1915,0 -0.2436,-0.1914 -1.3743,-0.069 -0.5742,-0.1741 -0.4175,-0.016 -0.1045,-0.017 0.034,0.052 -0.017,0.1565 -0.087,0 0.069,0.069 0.1565,0.2263 0.2087,0 c -0.019,0.051 -0.05,0.098 -0.1391,0.1391 l -0.2261,-0.053 -0.069,-0.051 -0.1044,0.017 c -0.069,-0.043 -0.1534,-0.086 -0.1567,-0.1392 l -0.017,0.1045 c -0.045,0.039 -0.1645,0.01 -0.2611,0 -0.1614,-0.01 -0.2566,-0.01 -0.3827,-0.017 -0.077,-0.1171 -0.043,-0.2065 0.017,-0.2785 l 0.3307,-0.017 -0.2089,-0.1219 -0.051,0.069 -0.2262,0.017 c -0.1261,-0.01 -0.2952,-0.033 -0.4526,-0.1044 0,-0.1188 0.027,-0.1529 0.051,-0.2261 l 0.4002,0.017 -0.2087,-0.2087 -0.348,-0.2088 c -0.2532,-0.055 -0.5336,-0.1148 -0.6785,-0.1915 -0.2793,-0.047 -0.4164,-0.1553 -0.5916,-0.2445 l -0.2263,-0.1903 c -0.082,-0.083 -0.067,-0.1531 0.052,-0.1914 0.095,-0.015 0.1172,-0.039 0.2784,-0.054 l 0.2609,-0.1217 z m -7.3758,3.0796 5.4795,0 0,8.2467 c 0.1663,0 0.6635,0.034 0.9569,0.034 0,-0.6293 -0.034,-3.3402 -0.034,-4.1235 0.3147,0 0.6611,-0.017 0.6611,-0.017 l 0,-0.5915 3.3578,-0.034 0.1566,4.106 1.3396,-0.069 -0.051,-5.7414 c 0,0 5.6589,-1.339 6.4373,-0.835 l 0,8.0031 c 0.5551,0 0.2687,-0.054 0.5045,0 0.013,0.3995 0.087,5.1642 0.087,5.7241 0.3854,0 0.7307,0.034 0.7307,0.034 l 0.017,-8.8208 1.1831,0 c 0,-0.4952 0.2262,-1.009 0.2262,-1.009 0,0 1.0955,-0.4003 1.27,-0.4003 l 3.4101,0 c 0.1496,0 0.1217,7.629 0.1217,8.4904 0.1377,0 0.555,1.6876 0.9744,1.6876 0,-0.6417 0.035,-3.3514 0.035,-4.2104 0.2611,-0.044 0.2388,-0.07 0.8003,-0.07 0,-0.3449 0.035,-0.1434 0.035,-0.4524 0.04,0 0.7271,0.016 1.1656,0.017 0.1113,0 0,-1.5569 0,-2.5227 l 0.8874,0 c 0.073,3e-4 0.056,2.5224 0.1217,2.5227 0.3235,7e-4 0.7668,0 0.8004,0 0.1711,0 -0.018,0.5541 0.1392,0.5569 0.1581,0 1.9137,0.051 1.9137,0.051 l 0.069,7.2029 1.0092,0.1044 -0.052,-2.1574 c 0.2377,0 0.7199,-0.032 1.1656,-0.07 0.248,1.4483 0.4525,2.9175 0.4525,4.4364 0,1.811 -0.1898,3.5816 -0.5394,5.289 -0.3494,1.7077 -0.8672,3.3545 -1.531,4.9238 -0.6637,1.5691 -1.4756,3.0584 -2.4185,4.4538 -0.9427,1.3956 -2.0143,2.6931 -3.2012,3.8799 -1.1867,1.1866 -2.4843,2.2583 -3.8798,3.2013 -1.3957,0.9426 -2.8848,1.7546 -4.4539,2.4183 -1.5693,0.6637 -3.216,1.1816 -4.9237,1.531 -1.7077,0.3495 -3.478,0.5395 -5.289,0.5395 -1.8109,0 -3.5814,-0.19 -5.2891,-0.5395 -1.7076,-0.3494 -3.3542,-0.8673 -4.9236,-1.531 -1.569,-0.6637 -3.0583,-1.4757 -4.454,-2.4183 -1.3954,-0.943 -2.693,-2.0147 -3.8797,-3.2013 -1.1868,-1.1868 -2.2585,-2.4843 -3.2014,-3.8799 -0.9428,-1.3954 -1.7545,-2.8847 -2.4182,-4.4538 -0.6638,-1.5693 -1.1818,-3.2161 -1.531,-4.9238 -0.3495,-1.7074 -0.5394,-3.478 -0.5394,-5.289 0,-0.4645 0.1155,-0.8983 0.1392,-1.357 l 0.1914,0 0,-1.4441 1.3048,0 0,1.6354 0.6438,0 0,0.9048 0.2957,0 c 0,0 -0.033,-4.7459 -0.033,-8.9426 0.014,-0.6177 2.5316,-0.015 3.584,-0.087 1.0022,0 1.9811,1.2178 2.3129,1.2178 0.048,0.9088 0.078,1.8238 0.1229,2.4879 l 0.7656,0 c 0,0 0.1696,-4.5651 0.1217,-8.5598 0.302,0 0.5831,-0.017 1.0266,-0.017 0,-0.4186 0.4524,-0.6723 0.4524,-0.9741 l 0.9742,0 0,-0.2438 0.3479,0 c -2e-4,-0.7312 0,-2.4926 0,-2.9228 l 0.8178,0 c 0.085,0 0.028,2.2123 0.052,2.8881 0.1163,0 0.1718,0.017 0.3305,0.017 0,0.164 0.017,0.1459 0.017,0.2612 l 1.6528,0 0,0.9046 0.3654,0 c 0.017,4.0025 0.087,9.1064 0.087,9.6907 0.2575,0 0.6739,0.035 0.9743,-0.034 0.017,-0.483 0.035,-0.6971 0.053,-0.9397 0.1959,-0.092 0.6437,-0.1914 0.6437,-0.1914 l -0.1392,-14.3883 z m 22.2263,0.4208 c 1.0232,-0.031 3.1159,0.2995 3.9656,0.5578 -2.0223,-0.1146 -1.5986,-0.1432 -1.7473,-0.022 0.3624,0.04 0.7506,0.2102 0.9905,0.2969 0.6112,0.3004 -0.1162,0.5244 -0.5415,0.5839 -0.047,0.01 0.1889,0.1685 0.1392,0.174 -0.2666,0.028 -1.1642,-0.074 -1.4191,-0.088 -0.072,-0.01 0.08,-0.2203 0.017,-0.2262 -0.2658,-0.024 -0.4663,-0.1026 -0.5077,-0.1827 l -0.3361,-0.3294 -0.5773,-0.1718 c -0.032,0.1997 -0.5332,0.2311 -0.5655,-0.043 -0.043,-0.3609 0.3172,-0.3473 0.5394,-0.2175 l 1.6669,0.2012 c 0.1824,-0.1782 -0.5888,-0.3165 -1.6245,-0.5316 z m -34.0472,6.7841 c 0.7856,0 1.5726,0.031 1.5897,0.1022 0.034,0.1428 -1.057,0.078 -1.2003,0.2262 l 1.3744,-0.069 c 0.1409,-0.1298 0.3333,-0.1062 0.3393,0.069 0.01,0.2342 -0.2968,0.2471 -0.3828,0.113 l -0.8439,0.096 -0.4002,0.3827 c 0.039,0.01 -0.063,10e-5 -0.2434,0.017 -0.036,0.01 0.066,0.1541 0.017,0.1566 -0.1722,0.01 -0.7418,-0.016 -0.9221,-0.035 -0.033,-0.01 0.1355,-0.1 0.1046,-0.1044 -0.086,-0.015 -0.1643,-0.041 -0.2262,-0.069 0.01,-0.113 -0.3278,-0.013 0.034,-0.348 l 0.4699,-0.2088 c -0.2749,-0.058 -1.3031,-0.096 -1.2874,-0.2262 0.01,-0.065 0.7913,-0.1006 1.5766,-0.1022 z m 19.5969,4.3475 c -0.5153,0.01 -1.0735,0.015 -1.6703,0.051 -0.5567,0.8619 -1.7082,0.9355 -2.826,0.6633 -0.01,-0.01 -0.016,0.014 -0.024,0.021 0.9824,0.7054 2.2238,1.6126 2.2238,1.6126 -0.4227,2.1307 0.1912,4.2703 1.844,6.4199 -0.2206,1.0648 -0.7387,2.0265 -1.5658,2.8533 l -4.0364,0.7655 -3.7231,7.3769 c 0,-1.4432 -0.2088,-2.1378 -0.2436,-3.3753 l 0.5743,0 0,-2.105 -0.6613,0 -2.7315,-6.7334 c -0.312,-0.294 -0.6284,0.058 -0.922,-0.069 l -0.8873,-2.3487 -1.2875,0.6089 0.7481,2.0182 c -0.2205,0.018 -0.3209,0.047 -0.5045,0.1392 0.027,1.6671 0.9395,4.1582 0.9395,4.1582 0,0 -0.5639,1.3318 -0.6959,2.0182 l 0.4,1.6006 -1.7745,3.6536 1.2875,0.5567 c 0.7286,-1.3377 1.4181,-1.7375 2.1921,-2.9403 0.03,0.083 -0.4851,1.0581 -0.6263,1.4266 0.128,0.4289 0.1115,0.3407 0.1043,0.7134 -0.01,0.6269 0.097,0.9117 -0.017,1.5486 0.1537,0.3788 0.6511,0.2969 0.8177,0.6436 0.082,0.1633 0.2082,-0.6162 0.2784,-0.435 0.066,0.1745 0.079,1.2937 0.1391,1.4789 0.39,1.2082 0.6798,2.6031 1.444,3.3926 0.9333,0.1387 1.319,0.72 2.0879,0.3306 0.654,-0.3317 1.71,-1.5899 2.1748,-2.1052 l 2.8358,-2.3836 -0.4349,-1.6005 1.0265,1.3395 c 0.6241,0.6432 1.159,1.1625 1.6005,1.5659 0.4777,1.4882 1.6859,2.3453 1.3919,3.7232 l 0.034,1.5486 c 0.1456,0.024 1.5221,2.2822 2.4182,3.5317 1.3855,-0.034 2.7569,-0.1486 4.0713,-0.4176 1.4989,-0.3068 2.9368,-0.7566 4.3148,-1.3397 1.3772,-0.5822 2.6893,-1.295 3.9145,-2.1225 0.106,-0.072 0.1911,-0.1699 0.2957,-0.2436 0.1816,-0.3652 0.3453,-0.7588 0.4698,-1.2527 l -0.8698,-4.1582 c 0.2668,-1.8048 -0.17,-3.9556 -0.4351,-5.7762 -1.038,-0.5093 -2.3125,-1.0156 -2.3661,-1.4265 0.9131,0.02 5.0829,0.4623 5.8631,0.5567 0.7804,0.094 1.3594,0.7068 1.7051,1.0092 0.2393,0.2091 0.3248,0.5779 0.4872,1.0264 0.1089,0.3011 0.764,2.1155 1.3048,3.6188 0.7171,-1.1101 1.3759,-2.2663 1.8964,-3.497 0.01,-0.021 0.01,-0.047 0.017,-0.069 -0.2653,-1.2295 -0.5353,-2.4213 -0.8177,-3.3752 -0.289,-0.9763 -0.7054,-1.0068 -0.9395,-1.5833 -1.1353,-0.577 -0.1845,-0.4317 -4.106,-1.7573 l -2.227,-0.8872 -7.1507,-1.0092 c -0.2195,-0.3126 -0.4577,-0.6111 -0.6784,-0.8873 -0.3854,-0.5328 -0.5589,-1.0516 -0.5219,-1.5831 l -0.9917,0 c -0.1886,-0.413 0.03,0.1561 -0.1218,-0.017 0.6252,-3.6547 -0.047,-6.2141 -1.4615,-6.1589 -0.5605,-0.1656 -1.2799,-0.2535 -2.1574,-0.2957 -0.4387,-0.021 -0.9113,-0.021 -1.4266,-0.017 z" id="path4086-4" inkscape:connector-curvature="0"/></g></svg>