<?xml version="1.0" encoding="UTF-8" standalone="no"?>
<!DOCTYPE svg PUBLIC "-//W3C//DTD SVG 20010904//EN" "http://www.w3.org/TR/2001/REC-SVG-20010904/DTD/svg10.dtd">
<svg version="1.0" xmlns="http://www.w3.org/2000/svg" width="700.000000pt" height="700.000000pt" viewBox="0 0 700.000000 700.000000" preserveAspectRatio="xMidYMid meet">
<metadata>
Created by potrace 1.11, written by Peter Selinger 2001-2013
</metadata>
<g transform="translate(0.000000,700.000000) scale(0.100000,-0.100000)" fill="#000000" stroke="none">
<path d="M3298 6995 c-2 -2 -46 -6 -98 -9 -52 -4 -108 -9 -125 -11 -43 -6 -248 -37 -260 -40 -5 -1 -28 -5 -50 -10 -177 -35 -451 -121 -603 -191 -29 -13 -55 -24 -57 -24 -11 0 -285 -139 -356 -180 -64 -38 -285 -180 -314 -202 -193 -150 -222 -175 -408 -362 -265 -266 -414 -461 -581 -760 -158 -283 -313 -686 -362 -946 -2 -14 -9 -45 -14 -70 -22 -100 -46 -270 -58 -395 -9 -105 -8 -509 1 -605 16 -150 40 -305 71 -447 15 -70 71 -271 98 -348 177 -521 456 -973 838 -1355 175 -175 173 -174 320 -289 486 -380 1086 -636 1690 -721 254 -36 666 -34 943 5 17 2 50 7 72 10 22 3 65 10 95 16 30 6 69 13 85 16 67 11 297 75 405 111 276 94 560 234 797 393 77 52 268 193 289 213 6 6 33 29 60 51 69 56 308 295 387 388 104 120 252 322 322 439 150 248 267 502 349 755 40 124 94 344 111 453 2 8 5 31 9 50 12 73 27 198 33 275 15 170 7 599 -12 730 -17 115 -47 290 -50 295 -2 4 -7 21 -10 39 -3 17 -12 60 -21 94 -131 528 -418 1064 -787 1471 -84 93 -262 268 -327 321 -25 21 -65 54 -90 75 -195 165 -560 384 -820 493 -124 52 -166 69 -260 100 -138 47 -268 81 -415 111 -119 24 -148 29 -255 41 -30 3 -73 9 -95 12 -42 5 -541 13 -547 8z m83 -821 c30 -9 55 -16 56 -16 1 0 29 -9 60 -22 63 -25 44 -26 258 15 89 16 90 17 129 28 60 16 28 -11 -39 -34 -32 -10 -59 -25 -62 -32 -3 -7 -11 -13 -19 -13 -8 0 -23 -6 -34 -12 -18 -12 -14 -14 38 -29 l57 -15 67 33 c98 48 130 45 97 -11 l-19 -33 33 5 32 4 -32 -21 c-18 -11 -33 -25 -33 -29 0 -18 -47 -34 -66 -24 -11 6 -59 13 -109 17 -49 4 -100 11 -113 16 -59 23 -118 -5 -72 -33 29 -18 24 -31 -7 -23 -16 4 -47 7 -70 6 -48 -2 -65 15 -37 37 18 14 18 14 -6 9 -32 -8 -70 2 -70 18 0 8 10 15 23 17 21 3 21 4 -9 25 -17 12 -42 24 -55 27 -45 8 -110 35 -136 56 l-26 20 34 15 c44 19 64 18 130 -1z m-305 -812 c-1 -306 3 -476 9 -480 6 -4 32 -7 58 -8 l48 -1 -4 239 -3 238 38 0 c37 0 38 1 38 35 0 21 5 35 13 36 6 1 94 2 195 3 l182 3 1 -36 c1 -35 4 -97 13 -281 3 -47 5 -102 5 -123 l1 -38 68 5 c37 2 72 5 78 5 7 1 9 105 6 334 l-3 333 178 37 c192 39 208 42 325 57 95 13 225 16 236 6 4 -4 8 -211 9 -459 0 -249 2 -458 2 -465 1 -7 9 -12 19 -11 9 1 22 1 28 0 7 -1 11 -88 13 -258 2 -142 4 -291 4 -330 1 -40 4 -73 7 -74 48 -5 71 -5 75 1 2 4 5 235 6 514 l1 506 69 0 c48 0 69 4 70 13 5 85 19 103 95 127 57 17 93 20 269 20 202 0 203 0 207 -22 5 -29 10 -262 12 -658 2 -229 6 -314 16 -340 23 -60 75 -153 85 -154 6 -1 11 87 13 239 2 131 4 240 5 241 3 3 57 12 80 13 9 1 16 4 16 9 -6 37 1 42 60 41 33 -1 64 2 70 5 6 4 9 57 7 146 l-3 140 53 0 54 0 1 -57 c1 -116 7 -225 12 -230 3 -3 26 -5 51 -6 43 -1 46 -2 46 -28 0 -15 4 -30 9 -33 4 -3 56 -6 115 -7 l106 -1 1 -32 c0 -17 2 -204 4 -415 2 -211 6 -385 8 -388 2 -2 29 -6 59 -8 l56 -5 -4 125 -4 125 48 1 c26 1 56 3 68 4 19 2 22 -5 32 -84 6 -47 14 -97 16 -111 20 -93 27 -404 12 -580 -4 -52 -9 -97 -11 -100 -1 -3 -6 -33 -9 -68 -8 -72 -36 -213 -66 -333 -162 -634 -546 -1221 -1065 -1631 -359 -283 -798 -489 -1240 -584 -64 -13 -179 -34 -221 -39 -27 -4 -59 -8 -72 -10 -55 -9 -247 -19 -362 -18 -383 0 -757 73 -1114 215 -109 43 -292 131 -371 178 -27 16 -63 37 -80 46 -62 35 -307 206 -335 234 -3 3 -34 30 -70 60 -191 160 -406 404 -557 630 -175 263 -336 623 -408 910 -27 105 -61 284 -70 360 -4 30 -8 57 -10 60 -4 8 -17 236 -18 310 0 97 12 193 25 201 7 4 12 38 12 86 l2 78 54 2 c99 4 97 5 95 -89 -1 -46 2 -88 7 -94 4 -6 22 -10 38 -8 l30 4 0 -56 c0 -47 3 -55 17 -52 17 3 18 35 15 524 -2 446 -1 523 12 533 14 12 157 18 174 7 4 -2 66 -8 137 -12 149 -8 176 -17 280 -93 38 -28 72 -51 75 -51 3 0 7 -30 9 -67 2 -38 5 -90 6 -118 2 -27 4 -62 4 -77 1 -26 4 -28 46 -28 l45 0 1 78 c0 42 3 140 5 217 3 77 6 266 7 420 l2 279 54 1 c53 1 55 2 78 40 13 22 26 48 30 58 4 14 17 17 64 17 46 0 59 3 59 15 0 8 9 15 19 15 18 0 19 8 19 133 0 72 0 149 1 170 l1 38 48 -3 47 -3 2 -130 c1 -71 2 -147 3 -167 0 -31 4 -38 20 -38 11 0 20 -7 20 -15 0 -12 17 -15 94 -15 l95 0 3 -52 c2 -43 6 -53 21 -52 9 1 17 -3 18 -10 2 -20 8 -516 10 -818 l2 -298 57 0 56 0 3 52 c3 60 2 59 44 74 l32 11 -3 429 c-1 236 -4 611 -6 834 l-4 405 317 0 318 0 -1 -473z m2144 408 c41 -5 84 -11 95 -14 11 -2 39 -7 62 -11 70 -11 57 -20 -25 -18 -68 2 -73 1 -42 -8 64 -20 110 -42 110 -54 0 -13 -42 -35 -65 -35 -8 0 -15 -6 -15 -14 0 -10 -13 -13 -52 -11 -29 2 -66 4 -82 4 -20 1 -27 5 -23 15 4 9 -4 16 -21 21 -15 3 -38 17 -52 29 -30 28 -87 49 -95 35 -10 -16 -44 -10 -54 10 -12 21 4 40 29 36 8 -2 28 -6 44 -9 16 -3 59 -8 95 -12 36 -3 69 -8 74 -11 4 -2 7 0 7 5 0 12 -44 29 -97 37 -24 4 -45 10 -48 14 -5 8 33 6 155 -9z m-3986 -779 c34 -2 9 -12 -45 -18 -30 -3 -56 -8 -59 -10 -5 -5 134 3 161 9 7 2 14 -4 16 -13 3 -13 -7 -16 -63 -17 -55 -1 -72 -5 -93 -25 -58 -52 -111 -60 -165 -23 l-29 19 23 19 c12 10 29 18 38 18 32 0 0 14 -41 17 -23 2 -53 6 -67 10 l-25 6 25 7 c21 5 255 7 324 1z"/>
<path d="M3226 4492 c-63 -3 -73 -6 -107 -36 -59 -54 -151 -73 -254 -52 l-40 8 19 -21 c11 -12 25 -21 32 -21 7 0 14 -4 16 -8 2 -5 44 -38 94 -75 l92 -67 -6 -37 c-7 -51 -7 -167 0 -228 15 -115 72 -256 158 -389 58 -90 59 -92 49 -135 -14 -63 -81 -187 -132 -244 -31 -35 -51 -48 -77 -51 -19 -3 -57 -9 -85 -15 -27 -6 -61 -13 -75 -15 -14 -2 -74 -14 -135 -26 -60 -12 -115 -22 -121 -23 -6 0 -108 -190 -225 -423 -118 -232 -215 -421 -217 -419 -2 1 -5 38 -7 81 -2 44 -6 93 -9 109 -2 17 -7 65 -11 108 l-6 77 34 0 35 0 -2 123 -1 122 -37 -1 -36 -1 -36 86 c-19 47 -90 221 -157 386 -67 165 -126 306 -132 313 -7 8 -27 12 -56 10 l-45 -3 -49 133 c-28 72 -54 132 -58 132 -5 0 -40 -14 -79 -31 l-69 -31 15 -37 c8 -20 26 -65 39 -101 12 -36 26 -73 30 -82 5 -14 2 -18 -13 -18 -41 0 -46 -41 -21 -165 6 -27 13 -63 16 -80 3 -16 20 -80 39 -141 l33 -112 -31 -83 c-48 -132 -49 -140 -24 -244 l23 -93 -75 -153 c-41 -85 -88 -180 -103 -211 l-29 -58 66 -30 c37 -16 72 -30 79 -30 6 0 21 17 33 38 11 20 48 71 82 112 34 41 78 96 98 122 20 26 37 46 39 44 2 -1 -13 -35 -32 -74 -26 -53 -33 -78 -27 -94 5 -13 8 -74 7 -136 0 -112 0 -114 26 -133 15 -10 31 -19 37 -19 5 0 15 -7 23 -16 11 -13 14 -12 25 13 10 23 13 25 14 8 1 -11 3 -31 5 -45 2 -14 6 -47 9 -75 12 -112 111 -369 158 -411 13 -11 62 -33 109 -48 122 -40 130 -36 299 134 74 74 201 190 281 258 l146 122 -17 63 c-9 34 -20 72 -24 85 -4 12 -5 22 -3 22 3 0 35 -37 70 -82 36 -46 101 -117 144 -158 63 -61 88 -94 127 -170 27 -52 65 -126 85 -164 l36 -69 1 -143 c0 -106 4 -147 15 -162 8 -12 68 -101 134 -199 142 -212 128 -194 151 -195 64 -4 286 17 409 38 164 28 413 106 593 186 218 97 435 229 453 275 40 99 46 127 38 157 -4 17 -10 43 -13 57 -7 41 -55 266 -71 333 -7 33 -12 63 -9 68 6 9 6 255 1 283 -3 11 -8 52 -12 90 -4 39 -8 77 -10 85 -10 53 -27 167 -28 188 0 7 -58 42 -129 78 -70 36 -133 74 -138 85 -11 20 -21 20 168 4 155 -13 199 -17 222 -20 14 -2 75 -9 135 -15 201 -19 235 -31 320 -115 46 -46 54 -61 103 -200 29 -82 69 -196 90 -252 l38 -103 59 97 c33 54 83 145 112 204 l52 105 -20 90 c-10 49 -29 125 -40 169 -11 44 -22 85 -23 90 -14 59 -31 99 -57 136 -17 24 -38 56 -47 71 -31 51 -145 107 -402 198 -74 26 -180 67 -235 89 -119 49 -110 47 -330 76 -22 3 -51 8 -65 10 -14 3 -45 7 -70 10 -41 5 -104 13 -140 20 -8 2 -56 8 -105 14 -50 7 -100 14 -110 16 -11 1 -44 6 -73 10 -52 7 -55 9 -106 79 -57 77 -86 139 -86 186 l0 30 -64 0 -65 0 3 33 c2 17 7 59 11 92 19 170 10 326 -26 435 -34 102 -74 145 -146 156 -21 3 -57 10 -80 15 -73 16 -325 27 -467 21z"/>
</g>
</svg>